HIERARCHY
ROOT Hips
{
    OFFSET 0.000000 0.000000 0.000000
    CHANNELS 6 Xposition Yposition Zposition Zrotation Xrotation Yrotation
    JOINT Spine
    {
        OFFSET -0.000000 7.284621 0.000000
        CHANNELS 3 Zrotation Xrotation Yrotation
        JOINT Spine1
        {
            OFFSET -0.000000 19.968920 0.000000
            CHANNELS 3 Zrotation Xrotation Yrotation
            JOINT Neck
            {
                OFFSET -0.000000 21.745657 0.000000
                CHANNELS 3 Zrotation Xrotation Yrotation
                JOINT Head
                {
                    OFFSET -0.000000 13.769711 1.776737
                    CHANNELS 3 Zrotation Xrotation Yrotation
                    End Site
                    {
                        OFFSET -0.000000 17.767368 0.000000
                    }
                }
            }
            JOINT LeftShoulder
            {
                OFFSET 3.594505 17.711157 -0.013107
                CHANNELS 3 Zrotation Xrotation Yrotation
                JOINT LeftArm
                {
                    OFFSET 12.210003 0.000000 0.000000
                    CHANNELS 3 Zrotation Xrotation Yrotation
                    JOINT LeftForeArm
                    {
                        OFFSET 24.535166 0.000000 0.000000
                        CHANNELS 3 Zrotation Xrotation Yrotation
                        JOINT LeftHand
                        {
                            OFFSET 20.235195 0.000000 0.000000
                            CHANNELS 3 Zrotation Xrotation Yrotation
                            JOINT LeftHandThumb1
                            {
                                OFFSET 1.906737 -2.166747 3.033446
                                CHANNELS 3 Zrotation Xrotation Yrotation
                                JOINT LeftHandThumb2
                                {
                                    OFFSET 2.043247 0.000000 1.332553
                                    CHANNELS 3 Zrotation Xrotation Yrotation
                                    JOINT LeftHandThumb3
                                    {
                                        OFFSET 2.665105 0.000000 0.000000
                                        CHANNELS 3 Zrotation Xrotation Yrotation
                                        End Site
                                        {
                                            OFFSET 2.367595 0.000000 0.000000
                                        }
                                    }
                                }
                            }
                            JOINT LeftHandIndex1
                            {
                                OFFSET 7.800290 0.000000 3.033446
                                CHANNELS 3 Zrotation Xrotation Yrotation
                                JOINT LeftHandIndex2
                                {
                                    OFFSET 4.441842 0.000000 0.000000
                                    CHANNELS 3 Zrotation Xrotation Yrotation
                                    JOINT LeftHandIndex3
                                    {
                                        OFFSET 2.220921 0.000000 0.000000
                                        CHANNELS 3 Zrotation Xrotation Yrotation
                                        End Site
                                        {
                                            OFFSET 1.972996 0.000000 0.000000
                                        }
                                    }
                                }
                            }
                            JOINT LeftHandMiddle1
                            {
                                OFFSET 7.800290 0.000000 1.005371
                                CHANNELS 3 Zrotation Xrotation Yrotation
                                JOINT LeftHandMiddle2
                                {
                                    OFFSET 4.886026 0.000000 0.000000
                                    CHANNELS 3 Zrotation Xrotation Yrotation
                                    JOINT LeftHandMiddle3
                                    {
                                        OFFSET 2.665105 0.000000 0.000000
                                        CHANNELS 3 Zrotation Xrotation Yrotation
                                        End Site
                                        {
                                            OFFSET 2.367595 0.000000 0.000000
                                        }
                                    }
                                }
                            }
                            JOINT LeftHandRing1
                            {
                                OFFSET 7.366940 0.000000 -1.005371
                                CHANNELS 3 Zrotation Xrotation Yrotation
                                JOINT LeftHandRing2
                                {
                                    OFFSET 4.441842 0.000000 0.000000
                                    CHANNELS 3 Zrotation Xrotation Yrotation
                                    JOINT LeftHandRing3
                                    {
                                        OFFSET 2.220921 0.000000 0.000000
                                        CHANNELS 3 Zrotation Xrotation Yrotation
                                        End Site
                                        {
                                            OFFSET 1.972996 0.000000 0.000000
                                        }
                                    }
                                }
                            }
                            JOINT LeftHandPinky1
                            {
                                OFFSET 6.933591 0.000000 -3.033446
                                CHANNELS 3 Zrotation Xrotation Yrotation
                                JOINT LeftHandPinky2
                                {
                                    OFFSET 3.553473 0.000000 0.000000
                                    CHANNELS 3 Zrotation Xrotation Yrotation
                                    JOINT LeftHandPinky3
                                    {
                                        OFFSET 1.776737 0.000000 0.000000
                                        CHANNELS 3 Zrotation Xrotation Yrotation
                                        End Site
                                        {
                                            OFFSET 1.578397 0.000000 0.000000
                                        }
                                    }
                                }
                            }
                        }
                    }
                }
            }
            JOINT RightShoulder
            {
                OFFSET -3.500468 17.711157 -0.013107
                CHANNELS 3 Zrotation Xrotation Yrotation
                JOINT RightArm
                {
                    OFFSET -12.210003 0.000000 0.000000
                    CHANNELS 3 Zrotation Xrotation Yrotation
                    JOINT RightForeArm
                    {
                        OFFSET -24.535166 0.000000 0.000000
                        CHANNELS 3 Zrotation Xrotation Yrotation
                        JOINT RightHand
                        {
                            OFFSET -20.235195 0.000000 0.000000
                            CHANNELS 3 Zrotation Xrotation Yrotation
                            JOINT RightHandThumb1
                            {
                                OFFSET -1.906737 -2.166747 3.033446
                                CHANNELS 3 Zrotation Xrotation Yrotation
                                JOINT RightHandThumb2
                                {
                                    OFFSET -2.043247 0.000000 1.332553
                                    CHANNELS 3 Zrotation Xrotation Yrotation
                                    JOINT RightHandThumb3
                                    {
                                        OFFSET -2.665105 0.000000 0.000000
                                        CHANNELS 3 Zrotation Xrotation Yrotation
                                        End Site
                                        {
                                            OFFSET -2.367595 0.000000 0.000000
                                        }
                                    }
                                }
                            }
                            JOINT RightHandIndex1
                            {
                                OFFSET -7.800290 0.000000 3.033446
                                CHANNELS 3 Zrotation Xrotation Yrotation
                                JOINT RightHandIndex2
                                {
                                    OFFSET -4.441842 0.000000 0.000000
                                    CHANNELS 3 Zrotation Xrotation Yrotation
                                    JOINT RightHandIndex3
                                    {
                                        OFFSET -2.220921 0.000000 0.000000
                                        CHANNELS 3 Zrotation Xrotation Yrotation
                                        End Site
                                        {
                                            OFFSET -1.972996 0.000000 0.000000
                                        }
                                    }
                                }
                            }
                            JOINT RightHandMiddle1
                            {
                                OFFSET -7.800290 0.000000 1.005371
                                CHANNELS 3 Zrotation Xrotation Yrotation
                                JOINT RightHandMiddle2
                                {
                                    OFFSET -4.886026 0.000000 0.000000
                                    CHANNELS 3 Zrotation Xrotation Yrotation
                                    JOINT RightHandMiddle3
                                    {
                                        OFFSET -2.665105 0.000000 0.000000
                                        CHANNELS 3 Zrotation Xrotation Yrotation
                                        End Site
                                        {
                                            OFFSET -2.367595 0.000000 0.000000
                                        }
                                    }
                                }
                            }
                            JOINT RightHandRing1
                            {
                                OFFSET -7.366940 0.000000 -1.005371
                                CHANNELS 3 Zrotation Xrotation Yrotation
                                JOINT RightHandRing2
                                {
                                    OFFSET -4.441842 0.000000 0.000000
                                    CHANNELS 3 Zrotation Xrotation Yrotation
                                    JOINT RightHandRing3
                                    {
                                        OFFSET -2.220921 0.000000 0.000000
                                        CHANNELS 3 Zrotation Xrotation Yrotation
                                        End Site
                                        {
                                            OFFSET -1.972996 0.000000 0.000000
                                        }
                                    }
                                }
                            }
                            JOINT RightHandPinky1
                            {
                                OFFSET -6.933591 0.000000 -3.033446
                                CHANNELS 3 Zrotation Xrotation Yrotation
                                JOINT RightHandPinky2
                                {
                                    OFFSET -3.553473 0.000000 0.000000
                                    CHANNELS 3 Zrotation Xrotation Yrotation
                                    JOINT RightHandPinky3
                                    {
                                        OFFSET -1.776737 0.000000 0.000000
                                        CHANNELS 3 Zrotation Xrotation Yrotation
                                        End Site
                                        {
                                            OFFSET -1.578397 0.000000 0.000000
                                        }
                                    }
                                }
                            }
                        }
                    }
                }
            }
        }
    }
    JOINT LeftUpLeg
    {
        OFFSET 8.883684 0.000000 0.000000
        CHANNELS 3 Zrotation Xrotation Yrotation
        JOINT LeftLeg
        {
            OFFSET -0.000000 -38.184189 0.000000
            CHANNELS 3 Zrotation Xrotation Yrotation
            JOINT LeftFoot
            {
                OFFSET -0.000000 -35.840691 0.000000
                CHANNELS 3 Zrotation Xrotation Yrotation
                JOINT LeftToeBase
                {
                    OFFSET -0.000000 -5.774395 13.325527
                    CHANNELS 3 Zrotation Xrotation Yrotation
                    End Site
                    {
                        OFFSET -0.000000 0.000000 3.553473
                    }
                }
            }
        }
    }
    JOINT RightUpLeg
    {
        OFFSET -8.883684 0.000000 0.000000
        CHANNELS 3 Zrotation Xrotation Yrotation
        JOINT RightLeg
        {
            OFFSET -0.000000 -38.184189 0.000000
            CHANNELS 3 Zrotation Xrotation Yrotation
            JOINT RightFoot
            {
                OFFSET -0.000000 -35.840691 0.000000
                CHANNELS 3 Zrotation Xrotation Yrotation
                JOINT RightToeBase
                {
                    OFFSET -0.000000 -5.774395 13.325527
                    CHANNELS 3 Zrotation Xrotation Yrotation
                    End Site
                    {
                        OFFSET -0.000000 0.000000 3.553473
                    }
                }
            }
        }
    }
}
MOTION
Frames:    4
Frame Time:    0.008333
-1.456820    80.997292    123.363586    13.047001    -1.458175    27.357277    6.292681    -8.580637    3.586387    -12.982612    9.214903    2.091922    -8.037478    14.177787    -6.488058    0.962098    -4.372473    -8.865370    3.786296    1.005380    -6.018164    -60.913776    12.269668    -32.051903    108.449661    -41.825714    -50.462803    26.120855    -20.165913    0.251870    1.023363    1.678581    3.750708    -0.000000    0.000000    2.393314    -0.000000    0.000000    4.786628    25.511290    -4.842578    -10.031673    0.000000    0.000000    0.000000    0.000000    0.000000    0.000000    27.120232    -1.423298    -3.142025    0.000000    0.000000    0.000000    0.000000    0.000000    0.000000    28.308088    2.162950    3.651973    0.000000    0.000000    0.000000    0.000000    0.000000    0.000000    29.082924    5.977592    10.604879    0.000000    0.000000    0.000000    0.000000    0.000000    0.000000    -10.650546    -3.562726    -0.357953    71.059311    28.898834    20.930624    -120.845963    -35.785900    36.855381    -26.330296    -29.896141    -5.236626    3.672868    2.624444    -1.910376    0.000000    0.000000    -2.147174    0.000000    0.000000    -4.294348    -15.668160    -2.645145    9.343451    0.000000    0.000000    0.000000    0.000000    0.000000    0.000000    -17.475571    -0.569162    2.486670    0.000000    0.000000    0.000000    0.000000    0.000000    0.000000    -19.022905    1.706757    -4.304041    0.000000    0.000000    0.000000    0.000000    0.000000    0.000000    -20.326927    4.225334    -11.248950    0.000000    0.000000    0.000000    0.000000    0.000000    0.000000    3.996920    -12.102996    -0.205212    -7.729128    31.925129    7.728532    -5.923536    5.494973    -34.117725    -0.225591    -4.512325    -1.112040    -27.482615    8.994789    -7.207695    11.041531    29.230764    -24.224640    17.354538    -12.818083    8.691196    0.029571    -2.670706    0.055311    
-1.798977    80.788673    123.443939    13.520688    -1.898163    27.627316    6.152071    -8.610008    3.398521    -13.789541    10.225063    2.221127    -7.642283    14.226842    -6.522576    1.692984    -4.798161    -8.861609    3.952138    0.825291    -6.757933    -60.037457    12.820493    -32.096985    108.260757    -39.616222    -49.373272    25.865120    -19.849506    -0.066511    0.642762    1.683236    3.310802    -0.000000    0.000000    2.116471    -0.000000    0.000000    4.232941    25.654079    -5.232460    -10.751451    0.000000    0.000000    0.000000    0.000000    0.000000    0.000000    27.789083    -1.625497    -3.596537    0.000000    0.000000    0.000000    0.000000    0.000000    0.000000    29.459087    2.216738    3.421980    0.000000    0.000000    0.000000    0.000000    0.000000    0.000000    30.681829    6.357128    10.570796    0.000000    0.000000    0.000000    0.000000    0.000000    0.000000    -10.738248    -3.542798    -0.073257    70.611328    29.383615    21.034521    -119.803848    -33.868618    36.347084    -26.295246    -29.091019    -5.421215    3.898769    2.696059    -1.872619    0.000000    0.000000    -2.142948    0.000000    0.000000    -4.285895    -16.057459    -2.793834    9.611478    0.000000    0.000000    0.000000    0.000000    0.000000    0.000000    -17.907598    -0.608445    2.575460    0.000000    0.000000    0.000000    0.000000    0.000000    0.000000    -19.476889    1.786018    -4.389488    0.000000    0.000000    0.000000    0.000000    0.000000    0.000000    -20.780827    4.432549    -11.511459    0.000000    0.000000    0.000000    0.000000    0.000000    0.000000    4.108877    -11.841465    -0.182244    -8.111998    32.455006    8.394566    -6.143923    5.720677    -33.919582    -0.217208    -4.464424    -1.115743    -27.418726    9.731125    -7.041106    11.142847    29.297375    -24.462738    17.305696    -13.953904    8.909587    0.034740    -2.499438    0.039254    
-2.142689    80.543846    123.506668    14.016291    -2.338182    27.834970    5.973413    -8.533160    3.209355    -14.606581    11.146386    2.357067    -7.220842    14.206749    -6.547125    2.415916    -5.211029    -8.830337    4.144341    0.627125    -7.557631    -59.111965    13.256784    -32.129330    108.013725    -37.457626    -48.263680    25.658220    -19.607685    -0.322346    0.323350    1.673015    2.916476    -0.000000    0.000000    1.866600    -0.000000    0.000000    3.733201    25.892763    -5.596362    -11.359424    0.000000    0.000000    0.000000    0.000000    0.000000    0.000000    28.481064    -1.819477    -3.993180    0.000000    0.000000    0.000000    0.000000    0.000000    0.000000    30.564766    2.254077    3.197646    0.000000    0.000000    0.000000    0.000000    0.000000    0.000000    32.170361    6.687910    10.489502    0.000000    0.000000    0.000000    0.000000    0.000000    0.000000    -10.813514    -3.552519    0.233089    70.026970    29.817398    21.221235    -118.700615    -32.000454    35.846146    -26.200890    -28.285906    -5.570578    4.116208    2.761090    -1.828792    0.000000    0.000000    -2.130385    0.000000    0.000000    -4.260769    -16.386490    -2.933751    9.873448    0.000000    0.000000    0.000000    0.000000    0.000000    0.000000    -18.264013    -0.658726    2.694868    0.000000    0.000000    0.000000    0.000000    0.000000    0.000000    -19.843348    1.831906    -4.408670    0.000000    0.000000    0.000000    0.000000    0.000000    0.000000    -21.138813    4.581195    -11.671743    0.000000    0.000000    0.000000    0.000000    0.000000    0.000000    4.237713    -11.618967    -0.089127    -8.552065    33.078987    9.198565    -6.334713    5.908728    -33.821659    -0.211724    -4.418457    -1.112043    -27.461641    10.379362    -6.880507    11.351356    29.498964    -24.700718    17.233173    -15.148995    9.170740    0.039715    -2.333171    0.023807    
-2.486506    80.266563    123.549355    14.531802    -2.763768    27.973812    5.759690    -8.359309    3.021145    -15.440033    11.969687    2.497885    -6.780914    14.107571    -6.558943    3.133163    -5.590298    -8.771971    4.355478    0.418774    -8.385324    -58.151859    13.579807    -32.156754    107.681519    -35.390289    -47.176392    25.457855    -19.419878    -0.512375    0.063332    1.636118    2.549054    -0.000000    0.000000    1.632338    -0.000000    0.000000    3.264677    26.162710    -5.929705    -11.875990    0.000000    0.000000    0.000000    0.000000    0.000000    0.000000    29.165174    -2.001374    -4.340451    0.000000    0.000000    0.000000    0.000000    0.000000    0.000000    31.627539    2.281086    2.981261    0.000000    0.000000    0.000000    0.000000    0.000000    0.000000    33.585091    6.981516    10.373121    0.000000    0.000000    0.000000    0.000000    0.000000    0.000000    -10.874032    -3.582435    0.552988    69.329651    30.192141    21.485092    -117.505775    -30.228695    35.388435    -26.080883    -27.515610    -5.661243    4.321548    2.823991    -1.790156    0.000000    0.000000    -2.119303    0.000000    0.000000    -4.238605    -16.670044    -3.065506    10.125673    0.000000    0.000000    0.000000    0.000000    0.000000    0.000000    -18.564260    -0.714388    2.827605    0.000000    0.000000    0.000000    0.000000    0.000000    0.000000    -20.145302    1.857063    -4.392202    0.000000    0.000000    0.000000    0.000000    0.000000    0.000000    -21.426359    4.691805    -11.773946    0.000000    0.000000    0.000000    0.000000    0.000000    0.000000    4.373750    -11.448968    0.100752    -9.021408    33.795475    10.095688    -6.489323    6.061950    -33.833420    -0.206941    -4.368185    -1.104581    -27.626516    10.912412    -6.760057    11.660177    29.857536    -24.899773    17.135878    -16.389923    9.463953    0.044145    -2.172455    0.009595    
